<svg width="106" height="60" fill="none" xmlns="http://www.w3.org/2000/svg"><path fill-rule="evenodd" clip-rule="evenodd" d="M50.1136 5.9345h-.1366c-.2099-.0127-.4199-.0178-.6299-.0229h-.4553c-.3972 0-.802.0102-1.2042.0305a.6253.6253 0 0 0-.091 0A28.2751 28.2751 0 0 0 37.0805 8.625l-.4326.2085v22.1412l1.0119-.3433c.8879-.3052 1.834-.5798 2.813-.8341a34.329 34.329 0 0 1 8.0952-1.0756v2.909a24.4348 24.4348 0 0 0-1.065.0306h-.0835a32.3607 32.3607 0 0 0-6.2282.9561 31.6346 31.6346 0 0 0-7.4197 2.8913V7.1119a29.7268 29.7268 0 0 1 7.784-3.166A29.7929 29.7929 0 0 1 48.8918 3h.4275c.511.0127 1.0094.0356 1.4774.0712a21.0914 21.0914 0 0 1 3.6554.5823v2.8633a22.6227 22.6227 0 0 0-3.5416-.534l-.0726-.0061c-.2468-.021-.4939-.0422-.7243-.0422Zm5.0392 2.9269c.6349.0483 1.2927.0712 1.958.0712a31.4672 31.4672 0 0 0 7.7131-.9892 31.7767 31.7767 0 0 0 7.4172-2.8938v27.8906a29.815 29.815 0 0 1-7.7865 3.1659 29.9427 29.9427 0 0 1-7.3362.9435 22.4048 22.4048 0 0 1-5.5654-.6561V8.3223c.43.0992.8727.1907 1.323.267.7387.1246 1.5179.2161 2.2768.272Zm14.1943.2161-1.0119.3408a44.554 44.554 0 0 1-2.8131.8417 34.2628 34.2628 0 0 1-8.4063 1.0782c-.6602 0-1.2673-.0178-1.8542-.056l-.807-.0534V34.0057l.6931.061c.6426.056 1.3054.0839 1.9732.0839a26.8836 26.8836 0 0 0 6.6203-.8569 27.7638 27.7638 0 0 0 5.1733-1.8589l.4326-.2085V9.0775Z" fill="#AFB1B8"/><path d="M35.7371 45.2124a1.491 1.491 0 0 0-.5147-.3478 1.4862 1.4862 0 0 0-.611-.1074 1.6723 1.6723 0 0 0-.6501.1221 1.5014 1.5014 0 0 0-.506.3331 1.4636 1.4636 0 0 0-.3263.5086 1.65 1.65 0 0 0-.1164.6281v3.794c-.009.2673.042.5333.1493.7781a1.525 1.525 0 0 0 .3794.5086c.1517.1277.3297.2197.5212.2696a2.116 2.116 0 0 0 .5666.0788 1.4195 1.4195 0 0 0 .6122-.1322 1.5996 1.5996 0 0 0 .506-.351 1.6487 1.6487 0 0 0 .3313-.5086 1.5334 1.5334 0 0 0 .1215-.6052v-.4246h-.9917v.3382a.8796.8796 0 0 1-.0582.3382.6075.6075 0 0 1-.1442.2136.6045.6045 0 0 1-.2074.1093.6973.6973 0 0 1-.2074.0356.503.503 0 0 1-.26-.0388.5066.5066 0 0 1-.2055-.1646.8982.8982 0 0 1-.1315-.5086v-3.5372a1.2071 1.2071 0 0 1 .1214-.567.507.507 0 0 1 .2102-.1845.5028.5028 0 0 1 .2755-.0444.5268.5268 0 0 1 .4427.2136.806.806 0 0 1 .1644.5086v.328h.9816v-.3865a1.7902 1.7902 0 0 0-.1215-.6637 1.5607 1.5607 0 0 0-.3314-.534ZM41.6289 45.1691a1.7652 1.7652 0 0 0-1.1282-.417 1.7342 1.7342 0 0 0-.592.1068 1.6058 1.6058 0 0 0-.5236.3102 1.5597 1.5597 0 0 0-.3846.5315 1.7714 1.7714 0 0 0-.1442.7349v3.6389c-.0068.256.0424.5103.1442.7451.0898.1956.221.3692.3846.5085.1516.1408.3296.2497.5236.3205.1897.0698.39.1059.592.1068a1.7138 1.7138 0 0 0 .5919-.1068 1.6563 1.6563 0 0 0 .5363-.3205 1.5532 1.5532 0 0 0 .3744-.5085 1.7543 1.7543 0 0 0 .1442-.7451v-3.6389a1.7698 1.7698 0 0 0-.1442-.7349 1.6411 1.6411 0 0 0-.3744-.5315Zm-.4629 4.9053a.6532.6532 0 0 1-.1973.5264.7267.7267 0 0 1-.4668.17.7264.7264 0 0 1-.4667-.17.6526.6526 0 0 1-.1973-.5264v-3.6389a.6526.6526 0 0 1 .1973-.5264.7264.7264 0 0 1 .4667-.17.7267.7267 0 0 1 .4668.17.6524.6524 0 0 1 .1973.5264v3.6389ZM49.3673 51.6994v-6.8887h-.9537l-1.2522 3.6465h-.0177l-1.2624-3.6465h-.9436v6.8887h.9841v-4.1907h.0177l.9638 2.9625h.4908l.9714-2.9625h.0177v4.1907h.9841ZM54.9581 45.2937a1.366 1.366 0 0 0-.5566-.3764 2.1838 2.1838 0 0 0-.7134-.1068H52.226v6.8888h.9815v-2.6904h.5059c.3063.0139.611-.0509.8854-.1882a1.4301 1.4301 0 0 0 .5389-.5264 1.649 1.649 0 0 0 .2251-.6001 4.8993 4.8993 0 0 0 .0531-.7832 3.923 3.923 0 0 0-.0961-.9841 1.4664 1.4664 0 0 0-.3617-.6332Zm-.506 2.1004a.8667.8667 0 0 1-.0911.3586.5522.5522 0 0 1-.2529.2415 1.006 1.006 0 0 1-.463.0865h-.4477v-2.342h.5059a.9422.9422 0 0 1 .4427.0864.5562.5562 0 0 1 .2302.2543c.0537.121.0829.2516.086.384v.4577c0 .1602.0101.3255 0 .473h-.0101ZM59.6077 44.8107h-.8045l-1.5178 6.8887h.9815l.2884-1.48h1.3382l.2884 1.48h.9816l-1.5558-6.8887Zm-.9057 4.4704.4832-2.4971h.0177l.4807 2.4971h-.9816ZM65.9497 48.9607h-.0177l-1.4824-4.15h-.9436v6.8887h.9815V47.557h.0203l1.5001 4.1424h.9233v-6.8887h-.9815v4.15ZM71.9476 44.8107l-.7893 2.7387h-.0202l-.7893-2.7387h-1.0397l1.3483 3.9771v2.9116h.9816v-2.9116l1.3483-3.9771h-1.0397ZM33 53.6445h.4731v1.3274h.3212v-1.3274h.4706v-.2721H33v.2721ZM36.9767 53.3724l-.6198 1.5995h.3415l.1316-.3636h.6375l.1366.3636h.3491l-.635-1.5995h-.3415Zm-.0506.9663.2176-.5925.2175.5925h-.4351ZM40.9079 54.3821h.3694v.206a.6128.6128 0 0 1-.3795.1348.4036.4036 0 0 1-.339-.1526.6692.6692 0 0 1-.1189-.417c0-.356.1543-.534.4604-.534a.3374.3374 0 0 1 .2277.0598.3407.3407 0 0 1 .1341.1944l.3162-.061c-.0683-.3128-.2934-.4704-.678-.4704a.8043.8043 0 0 0-.559.206.783.783 0 0 0-.2302.6153.872.872 0 0 0 .2049.6002.7732.7732 0 0 0 .6071.2339.9607.9607 0 0 0 .678-.2543v-.6306h-.6932v.2695ZM44.9226 53.3724h-.3238v1.5995h1.1206v-.2721h-.7968v-1.3274ZM48.3175 53.3724h-.3238v1.5995h.3238v-1.5995ZM51.6365 54.4405l-.6552-1.0681h-.3137v1.5995h.301v-1.0451l.6426 1.0451h.3213v-1.5995h-.296v1.0681ZM54.6368 54.2675h.7969v-.2721h-.7969v-.3509h.8576v-.2721H54.313v1.5995h1.2143v-.2721h-.8905v-.4323ZM61.9122 54.0031h-.6299v-.6307h-.3212v1.5995h.3212v-.6993h.6299v.6993h.3213v-1.5995h-.3213v.6307ZM64.9302 54.2675h.7994v-.2721h-.7994v-.3509h.8601v-.2721h-1.1814v1.5995h1.2117v-.2721h-.8904v-.4323ZM69.0233 54.2676c.2782-.0432.4199-.1907.4199-.445a.3828.3828 0 0 0-.1569-.356.9038.9038 0 0 0-.468-.0941h-.6779v1.5995h.3213v-.6688h.0632a.431.431 0 0 1 .1998.0356.335.335 0 0 1 .1139.117l.3491.5086h.3845l-.1948-.3128a1.1151 1.1151 0 0 0-.3541-.384Zm-.3239-.2212h-.2377v-.4018h.2529a.8399.8399 0 0 1 .3264.0381.2093.2093 0 0 1-.0152.3255.9127.9127 0 0 1-.3264.0382ZM72.1096 54.2675h.7968v-.2721h-.7968v-.3509h.8601v-.2721h-1.1839v1.5995H73v-.2721h-.8904v-.4323Z" fill="#AFB1B8"/></svg>