<svg width="106" height="60" fill="none" xmlns="http://www.w3.org/2000/svg"><path d="M26.7569 44.7352c.2437.2762.3735.622.3667.977a1.4307 1.4307 0 0 1-.1306.6763c-.0983.2136-.2479.4042-.4376.5578-.4734.3273-1.0598.4873-1.6517.4506H22v-6.1914h2.8442c.5615-.0342 1.1184.1112 1.5758.4113.1836.1408.3291.3187.4248.5197.0958.2011.1392.4197.1268.6388.0167.3415-.1004.6773-.3303.9467-.2207.246-.5257.4165-.8655.4839.3852.0644.7329.252.9811.5293Zm-3.4058-.9346h1.2156c.2763.0187.5507-.0543.773-.2057a.7375.7375 0 0 0 .2076-.2746.6794.6794 0 0 0 .0534-.3303.702.702 0 0 0-.0546-.329.759.759 0 0 0-.2031-.2759c-.2289-.1557-.5118-.2298-.7961-.2087h-1.1958v1.6242Zm2.1076 2.3744a.777.777 0 0 0 .2241-.2838.7115.7115 0 0 0 .0633-.3454.7223.7223 0 0 0-.0662-.3489.7876.7876 0 0 0-.2278-.2862c-.2379-.1615-.5304-.2408-.8259-.2239h-1.2751v1.7029h1.2916c.2907.0154.5785-.0604.816-.2147ZM32.5709 47.3969l-1.5823-2.4197h-.5946v2.4197h-1.361v-6.1914h2.5766c.6495-.0415 1.2916.1469 1.7938.5263.3601.336.5774.7788.6125 1.2485.0351.4697-.1141.9355-.4209 1.3134-.3179.3334-.7522.5557-1.2289.6291l1.6847 2.4741h-1.4799Zm-2.1769-3.2636h1.1132c.773 0 1.1595-.3125 1.1595-.9376a.852.852 0 0 0-.0622-.3752.917.917 0 0 0-.2219-.3205c-.2443-.186-.5589-.2762-.8754-.251h-1.1265l.0133 1.8843ZM40.0102 46.1506h-2.7121l-.479 1.2462H35.392l2.4908-6.1219h1.5427l2.4808 6.1219h-1.427l-.4691-1.2462Zm-.3634-.9376-.991-2.6133-.991 2.6133h1.982ZM49.3224 47.3969h-1.3511l-3.0292-4.2103v4.2103h-1.3478v-6.1915h1.3478l3.0292 4.2346v-4.2346h1.3511v6.1915ZM57.0326 45.9149c-.2794.4674-.705.8477-1.2223 1.0919-.5881.272-1.2408.406-1.8994.3902H51.506v-6.1915h2.4049c.6575-.0157 1.3093.1151 1.8994.3811.5172.2387.9433.6151 1.2223 1.0798.2781.5036.423 1.0599.423 1.6242s-.1449 1.1207-.423 1.6243Zm-1.546-.1482c.3856-.4113.5976-.9355.5976-1.4776 0-.542-.212-1.0662-.5976-1.4775-.4661-.3726-1.0739-.5617-1.6914-.5263h-.9381v4.0077h.9381c.6175.0353 1.2253-.1538 1.6914-.5263ZM40.8558 6.7667S58.2945 12.795 57.9245 21.518v14.7542S40.4991 30.2411 40.8624 21.518l-.0066-14.7513ZM73.4603 32.8181c3.2935-2.0753 7.103-3.3607 11.0796-3.7385v-4.6187c-4.582 1.617-8.469 4.5489-11.0796 8.3572Z" fill="#AFB1B8"/><path d="M71.4816 34.2095c2.6957-4.9699 7.3689-8.8049 13.0584-10.7163V10.1847s-24.835 8.587-24.3097 21.0092v21.0062s1.1066-.3841 2.8475-1.104c0-.6714 0-1.3489.0793-2.0295.514-5.767 3.5083-11.111 8.3245-14.8571Z" fill="#AFB1B8"/><path d="M69.1197 42.0131a20.0515 20.0515 0 0 1 .8688-4.3011c-2.9989 3.2351-4.8151 7.2494-5.1929 11.4786-.0364.3993-.0562.7985-.0661 1.2099 1.4105-.6201 3.0523-1.3944 4.7767-2.3048a19.9433 19.9433 0 0 1-.3865-6.0826ZM70.1075 42.0887a19.0514 19.0514 0 0 0 .3072 5.5079c6.7852-3.7173 14.4094-9.4611 14.1154-16.4027v-.6049c-4.8477.4966-9.3833 2.437-12.9097 5.523-.8256 1.9124-1.3355 3.9267-1.5129 5.9767Z" fill="#AFB1B8"/></svg>