<svg width="106" height="60" fill="none" xmlns="http://www.w3.org/2000/svg"><path d="M53.425 27.4082c-.4431-.5898-.6551-1.2869-.6047-1.9886v-2.8832c0-.8838.2004-1.5555.6013-2.015.4008-.4595 1.0894-.6883 2.0655-.6863.9173 0 1.5684.1955 1.9534.5866.42.499.6243 1.1092.5775 1.7246v.6776h-1.6408v-.6864a3.4935 3.4935 0 0 0-.0476-.6716c-.0236-.1521-.1062-.2927-.2344-.3989-.1685-.1145-.3807-.17-.5945-.1555-.2248-.0145-.4478.0441-.6251.1643-.1429.1177-.2382.2719-.2718.4399a3.3317 3.3317 0 0 0-.0645.7128v3.4991c-.0259.3376.0465.6754.2106.9826.0816.1039.1949.1863.3275.2381a.9001.9001 0 0 0 .4233.0552c.2102.0149.4188-.042.5809-.1584.1337-.1146.2197-.2641.2446-.4253a3.8588 3.8588 0 0 0 .051-.701v-.7098h1.6408v.6482c.0461.6416-.1532 1.2784-.5673 1.8126-.3771.4283-1.0192.6424-1.9636.6424-.9444 0-1.6579-.2288-2.0621-.704ZM60.2569 27.4376c-.4145-.4488-.6217-1.1029-.6217-1.9681v-3.0328c0-.8564.2072-1.5046.6217-1.9446.4144-.44 1.1075-.659 2.079-.657.9648 0 1.6545.219 2.0689.657.4145.44.6251 1.0882.6251 1.9446v3.0328c0 .8564-.2106 1.5134-.6319 1.9651-.4212.4517-1.1074.6776-2.0621.6776-.9546 0-1.6612-.2288-2.079-.6746Zm2.8434-.7274c.1484-.2811.216-.589.1971-.8975v-3.7133c.019-.3025-.0475-.6045-.1937-.8799-.0832-.1061-.1994-.1899-.3351-.2418a.9068.9068 0 0 0-.4327-.0515.9178.9178 0 0 0-.4338.0521c-.1362.0518-.253.1353-.3373.2412-.1494.2746-.2171.577-.197.8799v3.7309c-.0207.3086.047.6168.197.8975.0956.0946.2137.1704.3461.2224.1324.0519.2762.0788.4217.0788.1454 0 .2892-.0269.4216-.0788a1.0225 1.0225 0 0 0 .3461-.2224v-.0176ZM67.0035 19.9236h1.7666l1.3283 5.5956 1.3589-5.5956h1.719l.1733 8.0767H72.079l-.1359-5.6132-1.3113 5.6132h-1.0192l-1.3589-5.6338-.1257 5.6338h-1.2841l.1596-8.0767ZM75.3302 19.9236h2.7517c1.5854 0 2.378.7644 2.378 2.2934 0 1.4644-.8345 2.1956-2.5037 2.1936h-.9376v3.5897H75.32l.0102-8.0767Zm2.3509 3.4518c.1678.0184.3382.0051.4995-.039a1.2254 1.2254 0 0 0 .4347-.2161c.1948-.2728.2807-.5932.2446-.9121a2.5254 2.5254 0 0 0-.0816-.7332.5943.5943 0 0 0-.125-.2216.703.703 0 0 0-.2147-.1626 1.7586 1.7586 0 0 0-.7575-.129h-.6591v2.4136h.6591ZM82.9094 19.9236h1.8243l1.8718 8.0767h-1.583l-.3703-1.8623h-1.6273l-.3805 1.8623h-1.6068l1.8718-8.0767Zm1.5593 5.2789-.6353-3.3902-.6352 3.3902h1.2705ZM88.1173 19.9236h1.189l2.2762 4.6073v-4.6073h1.4098v8.0767H91.861l-2.2897-4.8097v4.8097h-1.4574l.0034-8.0767ZM96.2945 24.9208l-1.8923-4.9859h1.5933l1.1551 3.2027 1.0837-3.2027h1.5593l-1.8685 4.9859v3.0795h-1.6306v-3.0795ZM56.0477 31.5316v.4224h-1.386v3.2819h-.581V31.954h-1.3928v-.4224h3.3598ZM60.3927 35.2362h-.4485a.1997.1997 0 0 1-.1257-.0352.1937.1937 0 0 1-.0747-.085l-.4009-.8799h-1.9228l-.4009.8799a.243.243 0 0 1-.0612.0997.2078.2078 0 0 1-.1256.0352h-.4485l1.6986-3.7041h.5912l1.719 3.6894Zm-2.813-1.3755h1.6036l-.6795-1.5074a2.6989 2.6989 0 0 1-.1257-.349c-.0238.0704-.0442.1378-.0645.1965l-.0612.1554-.6727 1.5045ZM63.3211 34.8724c.1064.0048.213.0048.3193 0a1.9172 1.9172 0 0 0 .2718-.044 2.1036 2.1036 0 0 0 .2446-.0675c.0748-.0264.1495-.0587.2276-.0909v-.8331h-.6794a.1372.1372 0 0 1-.0494-.0064.1246.1246 0 0 1-.0423-.0229.0864.0864 0 0 1-.0259-.0304.0742.0742 0 0 1-.0081-.0371v-.2845h1.3181v1.4197a2.506 2.506 0 0 1-.7168.3021 3.0556 3.0556 0 0 1-.4247.0763 5.1283 5.1283 0 0 1-.4959.0234 2.5908 2.5908 0 0 1-.8562-.1378c-.2543-.0883-.4854-.22-.6794-.3872-.1891-.1689-.338-.3682-.4382-.5866a1.8513 1.8513 0 0 1-.1563-.7685 1.9198 1.9198 0 0 1 .1529-.7744c.0977-.2195.2469-.4193.4382-.5866.1939-.1667.4251-.2974.6795-.3843a2.854 2.854 0 0 1 .9104-.1379 3.4305 3.4305 0 0 1 .4722.0323 2.333 2.333 0 0 1 .4043.0939c.1188.0385.2327.0877.3397.1466.1041.0579.203.1226.2956.1936l-.1631.2288a.1418.1418 0 0 1-.0551.0508.1705.1705 0 0 1-.0774.0196.2223.2223 0 0 1-.1053-.0293 2.1135 2.1135 0 0 1-.1665-.088 1.5038 1.5038 0 0 0-.2276-.0997 2.1267 2.1267 0 0 0-.3125-.0822 2.6144 2.6144 0 0 0-.4315-.0322 2.009 2.009 0 0 0-.6556.1026c-.1891.0655-.3595.1656-.4994.2933-.1408.1332-.2484.29-.316.4606a1.732 1.732 0 0 0 0 1.2348c.0744.1742.1901.3331.3398.4664.1393.1271.3084.2271.496.2933.216.0641.4449.089.6726.0734ZM68.7362 34.8136h1.8549v.4223h-2.4222v-3.7043h.5809l-.0136 3.282ZM72.5208 35.2359h-.581v-3.7043h.581v3.7043ZM74.6814 31.5492a.279.279 0 0 1 .0883.0675l2.4833 2.7923a.8812.8812 0 0 1 0-.132V31.517h.5062v3.7192h-.2921a.275.275 0 0 1-.1257-.0206.3276.3276 0 0 1-.0918-.0704l-2.4799-2.7894V35.2362h-.4858v-3.7046h.3024a.2678.2678 0 0 1 .0951.0176ZM82.0364 31.5316v.4077h-2.0587v1.2231h1.668v.393h-1.668v1.2641h2.0587v.4077h-2.6566v-3.6956h2.6566ZM21.1617 8.6555l25.7951 6.3233v22.158l-25.7951-6.3204V8.6555Zm-1.6544-1.8888v25.1261l29.1006 7.1357V13.9054L19.5073 6.7667Z" fill="#AFB1B8"/><path d="M35.1039 50.6922 6 43.5505V18.4271l29.1039 7.1388v25.1263Z" fill="#AFB1B8"/><path d="m19.9897 8.371 25.4587 6.244-10.8269 9.3499-25.4621-6.247 10.8303-9.347Zm-.4824-1.6043L6 18.4277l29.1039 7.1385 13.5039-11.6609-29.1005-7.1386ZM36.7414 49.2788l11.8664-10.2473-11.8664-2.9122v13.1595Z" fill="#AFB1B8"/></svg>